<svg width="50" height="50" viewBox="0 0 50 50" fill="none" xmlns="http://www.w3.org/2000/svg">
<path fill-rule="evenodd" clip-rule="evenodd" d="M41.6667 0H8.33335V4.16667H41.6667V0ZM41.6667 50V45.8333H8.33335V50H41.6667ZM8.33335 8.33333H41.6667C43.9584 8.33333 45.8334 10.2083 45.8334 12.5V37.5C45.8334 39.7917 43.9584 41.6667 41.6667 41.6667H8.33335C6.04169 41.6667 4.16669 39.7917 4.16669 37.5V12.5C4.16669 10.2083 6.04169 8.33333 8.33335 8.33333ZM25 14.0625C27.5834 14.0625 29.6875 16.1667 29.6875 18.75C29.6875 21.3333 27.5834 23.4375 25 23.4375C22.4167 23.4375 20.3125 21.3333 20.3125 18.75C20.3125 16.1667 22.4167 14.0625 25 14.0625ZM14.5834 32.2917V35.4167H35.4167V32.2917C35.4167 28.8125 28.4792 27.0833 25 27.0833C21.5209 27.0833 14.5834 28.8125 14.5834 32.2917Z" fill="black"/>
</svg>
